<svg id="SvgjsSvg1030" width="288" height="288" xmlns="http://www.w3.org/2000/svg" version="1.1" xmlns:xlink="http://www.w3.org/1999/xlink" xmlns:svgjs="http://svgjs.com/svgjs"><defs id="SvgjsDefs1031"></defs><g id="SvgjsG1032"><svg xmlns="http://www.w3.org/2000/svg" data-name="Layer 1" viewBox="0 0 512 512" width="288" height="288"><path fill="#e3e580" d="M495.88,240.57l-12.71-1.77a10.00893,10.00893,0,0,1-7.81-5.97,79.31608,79.31608,0,0,0-9.26-15.96,10.01672,10.01672,0,0,1-1.28-9.79l4.76-11.71a9.98932,9.98932,0,0,0-4.28-12.44l-23.58-13.54a10.00769,10.00769,0,0,0-12.85,2.5l-7.92,10.09a9.91191,9.91191,0,0,1-8.96,3.76,79.53868,79.53868,0,0,0-18.76-.02,9.99257,9.99257,0,0,1-9.05-3.75l-7.9-10.06a10.00792,10.00792,0,0,0-12.85-2.5l-23.6,13.56a10.002,10.002,0,0,0-4.28,12.43l4.76,11.71a10.02866,10.02866,0,0,1-1.29,9.78,78.64628,78.64628,0,0,0-9.26,15.98,10.04083,10.04083,0,0,1-7.81,5.98l-12.73,1.77a9.99942,9.99942,0,0,0-8.61,9.91l-.01,26.99a10.00068,10.00068,0,0,0,8.62,9.91l12.71,1.77a10.02416,10.02416,0,0,1,7.81,5.96991,80.81072,80.81072,0,0,0,4.16,8.26,82.031,82.031,0,0,0,5.09,7.70007,10.01911,10.01911,0,0,1,1.29,9.78992L335.51,332.63a10.00454,10.00454,0,0,0,4.29,12.44007L363.38,358.61a9.9968,9.9968,0,0,0,12.84-2.5l7.92-10.09a9.93157,9.93157,0,0,1,8.96-3.76,79.53869,79.53869,0,0,0,18.76.02,10.01009,10.01009,0,0,1,9.06,3.75l7.9,10.05994a9.99444,9.99444,0,0,0,12.84,2.5L465.26,345.03a9.98047,9.98047,0,0,0,4.28-12.43l-4.75-11.71a10.00127,10.00127,0,0,1,1.28-9.78,78.69721,78.69721,0,0,0,9.27-15.98,10.02542,10.02542,0,0,1,7.8-5.98l12.73-1.77a10.0082,10.0082,0,0,0,8.62-9.91l.01-26.99A10.00057,10.00057,0,0,0,495.88,240.57Zm-75.65,53.9A35.478,35.478,0,0,1,371.9,281.6a35.09459,35.09459,0,0,1,12.96-48.07A35.48983,35.48983,0,0,1,433.2,246.4,35.09774,35.09774,0,0,1,420.23,294.47Z" class="colorf66 svgShape" data-darkreader-inline-fill="" style="--darkreader-inline-fill:#adb029;"></path><path fill="#dfe16c" d="M495.87561,240.56873l-12.708-1.76819a10.02362,10.02362,0,0,1-7.80792-5.96875,79.18076,79.18076,0,0,0-9.25653-15.95734,10.02635,10.02635,0,0,1-1.28705-9.79108l4.76691-11.71551a10,10,0,0,0-4.28436-12.44165L441.718,169.39093a10.00005,10.00005,0,0,0-12.84363,2.49744l-2.41742,3.079,13.8656,7.95886a10,10,0,0,1,4.28442,12.44165l-4.767,11.71551a10.02635,10.02635,0,0,0,1.287,9.79108,79.18606,79.18606,0,0,1,9.25659,15.95734,10.0235,10.0235,0,0,0,7.80786,5.96875l12.708,1.76819a9.99993,9.99993,0,0,1,8.62188,9.90747l-.00775,26.99865a10,10,0,0,1-8.61639,9.90094l-12.7287,1.77826a10.02266,10.02266,0,0,0-7.805,5.97461,78.68129,78.68129,0,0,1-9.26612,15.98242,10.01639,10.01639,0,0,0-1.28522,9.7815l4.75635,11.70325a9.99991,9.99991,0,0,1-4.28338,12.4364L426.398,353.00879l2.41815,3.08081a9.99973,9.99973,0,0,0,12.847,2.49707l23.59808-13.55444a9.99993,9.99993,0,0,0,4.28339-12.4364l-4.75635-11.70325a10.0165,10.0165,0,0,1,1.28516-9.7815,78.67918,78.67918,0,0,0,9.26617-15.98242,10.02258,10.02258,0,0,1,7.805-5.97461l12.7287-1.77826a9.99993,9.99993,0,0,0,8.61634-9.90094l.00781-26.99865A10,10,0,0,0,495.87561,240.56873Z" class="colorff4e4e svgShape" data-darkreader-inline-fill="" style="--darkreader-inline-fill:#bec12d;"></path><path fill="#e3e580" d="M296.54,115.26l-25.1-3.49a9.91454,9.91454,0,0,1-7.85-6.04,115.68744,115.68744,0,0,0-7.05-14.37,117.19613,117.19613,0,0,0-8.96-13.24,9.92937,9.92937,0,0,1-1.34-9.86l9.46-23.25a9.98922,9.98922,0,0,0-4.28-12.44L210.06,8.83a9.99251,9.99251,0,0,0-12.84,2.5L181.59,31.23a9.92931,9.92931,0,0,1-9.15,3.74,116.38957,116.38957,0,0,0-32.18-.01,9.90249,9.90249,0,0,1-9.14-3.74L115.53,11.36a9.99648,9.99648,0,0,0-12.85-2.5L61.3,32.63a9.98039,9.98039,0,0,0-4.28,12.43L66.46,68.3a9.93235,9.93235,0,0,1-1.33,9.85A114.82036,114.82036,0,0,0,49.1,105.79a9.93041,9.93041,0,0,1-7.84,6.05l-25.13,3.51a9.98933,9.98933,0,0,0-8.61,9.9L7.5,172.66a10.00065,10.00065,0,0,0,8.62,9.91l25.1,3.49a9.94547,9.94547,0,0,1,7.85,6.05,115.68558,115.68558,0,0,0,7.05,14.37,117.07577,117.07577,0,0,0,8.96,13.23A9.92935,9.92935,0,0,1,66.42,229.57l-9.46,23.26a9.993,9.993,0,0,0,4.28,12.44l41.36,23.74a9.9925,9.9925,0,0,0,12.84-2.5l15.63-19.9a9.90645,9.90645,0,0,1,9.15-3.74,116.00636,116.00636,0,0,0,32.18005,0,9.93234,9.93234,0,0,1,9.14,3.75l15.59,19.86a10.00778,10.00778,0,0,0,12.85,2.5l41.38-23.77a9.98923,9.98923,0,0,0,4.28-12.44l-9.44-23.23a9.929,9.929,0,0,1,1.33-9.85,115.01186,115.01186,0,0,0,16.03-27.64A9.93056,9.93056,0,0,1,271.4,186l25.13-3.51a9.98938,9.98938,0,0,0,8.61-9.9l.02-47.42A10.00814,10.00814,0,0,0,296.54,115.26ZM184.02,196.64a55.57041,55.57041,0,0,1-75.69-20.15,54.969,54.969,0,0,1,20.31-75.29,55.55266,55.55266,0,0,1,75.69,20.15A54.97382,54.97382,0,0,1,184.02,196.64Z" class="color66c1ff svgShape" data-darkreader-inline-fill="" style="--darkreader-inline-fill:#adb029;"></path><path fill="#a8aa23" d="M147.83063 34.16571q-3.25653.23868-6.50959.66846c.37165.04834.74506.08465 1.11609.13653A9.75646 9.75646 0 0 0 147.83063 34.16571zM142.40076 262.87268c-.3537.04944-.708.08331-1.06183.12946 2.12958.27691 4.267.50213 6.41241.66113A9.72818 9.72818 0 0 0 142.40076 262.87268z" class="color595f74 svgShape" data-darkreader-inline-fill="" style="--darkreader-inline-fill:#c5c82e;"></path><path fill="#dfe16c" d="M296.53552,115.26489l-25.10022-3.49237a9.926,9.926,0,0,1-7.84393-6.04455,115.55654,115.55654,0,0,0-16.016-27.60614,9.92836,9.92836,0,0,1-1.33521-9.8595l9.462-23.25427a9.99994,9.99994,0,0,0-4.28437-12.44165L210.06128,8.82782a10,10,0,0,0-12.84357,2.49744l-3.97815,5.06689,28.17816,16.17426a9.99994,9.99994,0,0,1,4.28437,12.44165l-9.462,23.25427a9.92836,9.92836,0,0,0,1.33521,9.8595A115.55654,115.55654,0,0,1,233.59137,105.728a9.926,9.926,0,0,0,7.84393,6.04455l25.10022,3.49237a10.00005,10.00005,0,0,1,8.62189,9.90747l-.01367,47.41559a10,10,0,0,1-8.6164,9.90094l-25.12591,3.51019a9.92461,9.92461,0,0,0-7.84125,6.04987,114.858,114.858,0,0,1-16.02692,27.63947,9.91947,9.91947,0,0,0-1.33209,9.85186l9.44226,23.233a10,10,0,0,1-4.28338,12.4364L193.154,281.411l3.97931,5.06976a10,10,0,0,0,12.847,2.49707l41.37976-23.76806a10,10,0,0,0,4.28338-12.4364l-9.44226-23.233a9.91947,9.91947,0,0,1,1.33209-9.85186A114.858,114.858,0,0,0,263.56018,192.049a9.92461,9.92461,0,0,1,7.84125-6.04987l25.12591-3.51019a10,10,0,0,0,8.6164-9.90094l.01367-47.41559A10.00005,10.00005,0,0,0,296.53552,115.26489Z" class="color4eb7ff svgShape" data-darkreader-inline-fill="" style="--darkreader-inline-fill:#bec12d;"></path><path fill="#c3c628" d="M311.68,402.27,302.36,375.21a5.30322,5.30322,0,0,0-6.02-3.48l-15.17005,2.96a5.29822,5.29822,0,0,1-5.01-1.73,67.3068,67.3068,0,0,0-14.41-12.53,5.29258,5.29258,0,0,1-2.41-4.72l.81-15.43994a5.30359,5.30359,0,0,0-4.28-5.48L227.77,329.33a5.30333,5.30333,0,0,0-6.02,3.4801l-5.03,14.61987a5.23937,5.23937,0,0,1-4.01,3.47A67.16722,67.16722,0,0,0,194.66,357.11a5.27089,5.27089,0,0,1-5.29-.27l-12.96-8.42005A5.299,5.299,0,0,0,169.52,349.39l-18.77,21.6a5.2906,5.2906,0,0,0,0,6.95l10.14,11.66a5.28891,5.28891,0,0,1,1,5.20007,67.33728,67.33728,0,0,0-3.63,18.74,5.28134,5.28134,0,0,1-2.88,4.46l-13.78,7.02a5.28174,5.28174,0,0,0-2.61,6.43994L148.31,458.52a5.29325,5.29325,0,0,0,6.02,3.48l15.18-2.96a5.28147,5.28147,0,0,1,5.01,1.74,67.63621,67.63621,0,0,0,14.41,12.52,5.29266,5.29266,0,0,1,2.41,4.72L190.53,493.46a5.28737,5.28737,0,0,0,4.28,5.48l28.09,5.46a5.29321,5.29321,0,0,0,6.02-3.48l5.03-14.61987a5.28894,5.28894,0,0,1,4.01-3.47009,66.88356,66.88356,0,0,0,18.06-6.21,5.29747,5.29747,0,0,1,5.29.27l12.95,8.42005a5.29593,5.29593,0,0,0,6.89-.97009l18.78-21.6a5.30215,5.30215,0,0,0,0-6.95l-10.14-11.66a5.26865,5.26865,0,0,1-1.01-5.20007,66.92356,66.92356,0,0,0,3.63995-18.74,5.26134,5.26134,0,0,1,2.88-4.46l13.78-7.01A5.30414,5.30414,0,0,0,311.68,402.27ZM243.9,433A24.59293,24.59293,0,1,1,241.47,398.31006,24.60066,24.60066,0,0,1,243.9,433Z" class="color676e87 svgShape" data-darkreader-inline-fill="" style="--darkreader-inline-fill:#e5e834;"></path><path fill="#a8aa23" d="M311.68176,402.27026,302.364,375.20947a5.2991,5.2991,0,0,0-6.02319-3.47607l-15.1742,2.95508a5.28412,5.28412,0,0,1-5.00842-1.73267,67.59017,67.59017,0,0,0-14.41022-12.52649,5.28431,5.28431,0,0,1-2.4129-4.7185l.81439-15.43787a5.29894,5.29894,0,0,0-4.28057-5.48071l-28.09418-5.46094a5.299,5.299,0,0,0-6.022,3.47827l-.38123,1.1084,4.49738.87427a5.29894,5.29894,0,0,1,4.28057,5.48071l-.81439,15.43787a5.28431,5.28431,0,0,0,2.4129,4.7185,67.59017,67.59017,0,0,1,14.41022,12.52649,5.28412,5.28412,0,0,0,5.00842,1.73267l15.1742-2.95508a5.2991,5.2991,0,0,1,6.02319,3.47607l9.31781,27.06079a5.29906,5.29906,0,0,1-2.6062,6.44751l-13.78,7.01538a5.28507,5.28507,0,0,0-2.88019,4.45569,67.08193,67.08193,0,0,1-3.633,18.74219,5.28287,5.28287,0,0,0,1.00354,5.20325l10.13983,11.65625a5.29907,5.29907,0,0,1,.00122,6.95434L258.36011,476.051a5.26669,5.26669,0,0,1,2.94964.84155l12.954,8.41882a5.29911,5.29911,0,0,0,6.88678-.96667l18.77637-21.59986a5.29907,5.29907,0,0,0-.00122-6.95434l-10.13983-11.65625a5.28287,5.28287,0,0,1-1.00354-5.20325,67.08193,67.08193,0,0,0,3.633-18.74219,5.28507,5.28507,0,0,1,2.88019-4.45569l13.78-7.01538A5.29906,5.29906,0,0,0,311.68176,402.27026Z" class="color595f74 svgShape" data-darkreader-inline-fill="" style="--darkreader-inline-fill:#c5c82e;"></path><path fill="#4a4b0f" d="M187.75833,203.14141a62.46671,62.46671,0,0,0,23.05615-85.55762,63.13866,63.13866,0,0,0-85.91357-22.88916,62.46588,62.46588,0,0,0-23.05615,85.55762,63.12809,63.12809,0,0,0,85.91357,22.88916ZM114.81839,172.723a47.466,47.466,0,0,1,17.55322-65.02148,48.10858,48.10858,0,0,1,65.46924,17.41162,47.46684,47.46684,0,0,1-17.55322,65.02148A48.1099,48.1099,0,0,1,114.81839,172.723Zm24.36474,97.57031a123.64374,123.64374,0,0,0,34.25489.00684,2.41891,2.41891,0,0,1,2.20312.94678l15.59229,19.86474a17.59251,17.59251,0,0,0,22.48193,4.36963l41.37988-23.76806a17.56534,17.56534,0,0,0,7.4961-21.76368L253.149,226.71709a2.41929,2.41929,0,0,1,.28516-2.40039,122.32311,122.32311,0,0,0,17.07324-29.44385,2.4272,2.4272,0,0,1,1.93116-1.44629l25.126-3.51025a17.57584,17.57584,0,0,0,15.07862-17.32666l.01367-47.415a17.57166,17.57166,0,0,0-15.08789-17.33789l-25.10108-3.49316a2.42674,2.42674,0,0,1-1.93164-1.4458,123.23774,123.23774,0,0,0-7.51367-15.30127V87.596a123.514,123.514,0,0,0-9.542-14.09717,2.42906,2.42906,0,0,1-.29395-2.41016l9.4624-23.25439a17.56176,17.56176,0,0,0-7.498-21.77246L213.79446,2.32256a17.59635,17.59635,0,0,0-22.47607,4.37109L175.68948,26.59942a2.42526,2.42526,0,0,1-2.21387.94335,123.64054,123.64054,0,0,0-34.25439-.00683,2.416,2.416,0,0,1-2.20312-.94678L121.42581,6.72393A17.59476,17.59476,0,0,0,98.94388,2.35479L57.56351,26.12285A17.56388,17.56388,0,0,0,50.0679,47.88652l9.44189,23.2334a2.41556,2.41556,0,0,1-.28515,2.39942A122.32239,122.32239,0,0,0,42.1514,102.96319a2.42717,2.42717,0,0,1-1.93116,1.44628l-25.126,3.51026A17.57583,17.57583,0,0,0,.01565,125.24639L.002,172.66143a17.57166,17.57166,0,0,0,15.08838,17.33789L40.191,193.492a2.4278,2.4278,0,0,1,1.93164,1.44678,123.1077,123.1077,0,0,0,17.05615,29.39942,2.42706,2.42706,0,0,1,.29394,2.40917l-9.46191,23.25391a17.5606,17.5606,0,0,0,7.49756,21.773l41.356,23.73828a17.35147,17.35147,0,0,0,8.65673,2.29834,17.56418,17.56418,0,0,0,13.81983-6.66846l15.62842-19.90576A2.41676,2.41676,0,0,1,139.18313,270.29326Zm-14.01171-8.31982L109.543,281.8792a2.51433,2.51433,0,0,1-3.21143.62451l-41.356-23.73828a2.50925,2.50925,0,0,1-1.07128-3.11084l9.4624-23.25439a17.46108,17.46108,0,0,0-2.37744-17.30957,108.06831,108.06831,0,0,1-14.97608-25.813,17.4686,17.4686,0,0,0-13.75537-10.64209l-25.10058-3.49317a2.50971,2.50971,0,0,1-2.15528-2.47656l.01367-47.415a2.51145,2.51145,0,0,1,2.15381-2.47558l25.127-3.51026a17.46823,17.46823,0,0,0,13.751-10.65381,107.33023,107.33023,0,0,1,14.98-25.83447A17.44736,17.44736,0,0,0,73.40628,65.472L63.9639,42.23858a2.50959,2.50959,0,0,1,1.0708-3.10889l41.37939-23.76758a2.47959,2.47959,0,0,1,1.23779-.32861,2.50781,2.50781,0,0,1,1.97461.95263l15.5918,19.86426a17.45314,17.45314,0,0,0,16.0791,6.541,108.62058,108.62058,0,0,1,30.10059.00683,17.47235,17.47235,0,0,0,16.08935-6.53564l15.62891-19.90625a2.51412,2.51412,0,0,1,3.21094-.62451L247.68362,39.0711a2.50916,2.50916,0,0,1,1.07129,3.11035l-9.4624,23.25439a17.46236,17.46236,0,0,0,2.37695,17.31006,108.03363,108.03363,0,0,1,14.97608,25.8125,17.46861,17.46861,0,0,0,13.75537,10.64209l25.10107,3.49316a2.50929,2.50929,0,0,1,2.15479,2.47657l-.01367,47.415a2.51108,2.51108,0,0,1-2.15381,2.47558l-25.127,3.51026a17.4682,17.4682,0,0,0-13.751,10.6538,107.33722,107.33722,0,0,1-14.98047,25.835,17.45066,17.45066,0,0,0-2.37842,17.3042l9.44238,23.23291a2.51022,2.51022,0,0,1-1.0708,3.10938l-41.3789,23.76758a2.51539,2.51539,0,0,1-3.21241-.624l-15.59179-19.86425a17.45242,17.45242,0,0,0-16.0791-6.541,108.69179,108.69179,0,0,1-30.1001-.00684A17.47093,17.47093,0,0,0,125.17142,261.97344Zm121.2207,130.67187v-.00048a32.09361,32.09361,0,1,0-21.10254,56.31689q1.13892,0,2.28662-.08008a32.09336,32.09336,0,0,0,18.81592-56.23633Zm-8.15479,35.43555a17.09314,17.09314,0,1,1-14.09277-28.26611q.61156-.04248,1.21777-.04248a16.96738,16.96738,0,0,1,11.189,4.19384v-.00048A17.11289,17.11289,0,0,1,238.23733,428.08086Zm142.8916-201.05469a42.59692,42.59692,0,0,0-15.7163,58.34229,43.02215,43.02215,0,0,0,58.55273,15.605,42.59652,42.59652,0,0,0,15.7168-58.34229A43.033,43.033,0,0,0,381.12893,227.02617Zm48.36377,44.0752a27.55762,27.55762,0,0,1-12.99853,16.86523,28.00158,28.00158,0,0,1-38.10791-10.12744A27.59662,27.59662,0,0,1,388.60013,240.033a28.00262,28.00262,0,0,1,38.10839,10.12744A27.33787,27.33787,0,0,1,429.4927,271.10137Zm67.416-37.96094-12.708-1.76807a2.5154,2.5154,0,0,1-1.95947-1.52246,86.88835,86.88835,0,0,0-4.56348-9.04248v-.00048a87.03151,87.03151,0,0,0-5.57031-8.42627,2.5161,2.5161,0,0,1-.34521-2.47071l4.76709-11.71533a17.5606,17.5606,0,0,0-7.49756-21.77295L445.4512,162.88652a17.593,17.593,0,0,0-22.47607,4.36963L415.05276,177.347a2.4436,2.4436,0,0,1-2.1709.94336,87.209,87.209,0,0,0-20.52734-.019,2.50209,2.50209,0,0,1-2.27783-.92969l-7.89844-10.0625a17.592,17.592,0,0,0-22.48144-4.36963l-23.59864,13.55469a17.56534,17.56534,0,0,0-7.49609,21.76367l4.75635,11.70313a2.50251,2.50251,0,0,1-.33838,2.46,86.2762,86.2762,0,0,0-10.14942,17.50586,2.51165,2.51165,0,0,1-1.958,1.521l-12.7295,1.77833a17.57731,17.57731,0,0,0-15.07763,17.32666l-.00782,26.99853a17.57272,17.57272,0,0,0,15.0879,17.33789l12.708,1.76807a2.51472,2.51472,0,0,1,1.95948,1.52148A86.72389,86.72389,0,0,0,332.98685,315.619a2.51535,2.51535,0,0,1,.34472,2.47119L328.56546,329.805a17.56058,17.56058,0,0,0,7.49756,21.77295l23.58008,13.53516a17.35469,17.35469,0,0,0,8.65722,2.29834,17.564,17.564,0,0,0,13.81934-6.66846l7.92236-10.09033a2.42513,2.42513,0,0,1,2.17041-.94336,87.1084,87.1084,0,0,0,20.52783.019,2.50765,2.50765,0,0,1,2.27784.9292L422.916,360.721a17.59548,17.59548,0,0,0,22.48194,4.36914l23.59863-13.55469a17.56424,17.56424,0,0,0,7.49561-21.76367l-4.75635-11.70313a2.50355,2.50355,0,0,1,.33838-2.46,86.245,86.245,0,0,0,10.14941-17.50586,2.51167,2.51167,0,0,1,1.958-1.521l12.73-1.77832a17.57733,17.57733,0,0,0,15.07764-17.32666l.00781-26.99854A17.57273,17.57273,0,0,0,496.90872,233.14043Zm.08057,44.33252a2.51177,2.51177,0,0,1-2.15381,2.4751l-12.728,1.77783a17.63373,17.63373,0,0,0-13.65381,10.42822,71.258,71.258,0,0,1-8.38281,14.45948,17.61562,17.61562,0,0,0-2.23145,17.10253l4.75684,11.70362a2.5096,2.5096,0,0,1-1.0708,3.10888l-23.59766,13.5542a2.51457,2.51457,0,0,1-3.2124-.62353l-7.89795-10.063a17.61565,17.61565,0,0,0-15.834-6.56445,72.12924,72.12924,0,0,1-16.99121-.0166,17.509,17.509,0,0,0-15.748,6.57421l-7.92236,10.09082a2.51352,2.51352,0,0,1-3.21143.624L343.5303,338.56914a2.50924,2.50924,0,0,1-1.07129-3.11084l4.7666-11.71484a17.62747,17.62747,0,0,0-2.229-17.11182,71.69141,71.69141,0,0,1-8.37891-14.44433A17.63642,17.63642,0,0,0,322.961,281.7708l-12.708-1.76806a2.51059,2.51059,0,0,1-2.15528-2.47705l.00782-26.999a2.51177,2.51177,0,0,1,2.15381-2.4751l12.72754-1.77783A17.6319,17.6319,0,0,0,336.64017,235.846a71.27191,71.27191,0,0,1,8.38281-14.459,17.615,17.615,0,0,0,2.23193-17.10351l-4.75635-11.70313a2.51022,2.51022,0,0,1,1.0708-3.10937l23.59815-13.55469a2.48288,2.48288,0,0,1,1.2373-.32861,2.508,2.508,0,0,1,1.97412.95312l7.89844,10.0625a17.61789,17.61789,0,0,0,15.834,6.56445,72.12447,72.12447,0,0,1,16.99072.01661,17.51583,17.51583,0,0,0,15.74853-6.57471l7.92237-10.09033a2.51342,2.51342,0,0,1,3.21094-.62354l23.58056,13.53467a2.50881,2.50881,0,0,1,1.07129,3.11035l-4.76709,11.71631a17.62656,17.62656,0,0,0,2.229,17.11084,71.687,71.687,0,0,1,8.3794,14.44434,17.63571,17.63571,0,0,0,13.65625,10.4165l12.708,1.76807a2.51058,2.51058,0,0,1,2.15576,2.477ZM309.45511,372.76836a12.85734,12.85734,0,0,0-14.54834-8.397L280.98,367.08379a75.06913,75.06913,0,0,0-14.08887-12.24707l.74756-14.16895A12.85509,12.85509,0,0,0,257.29935,327.43L229.2056,321.969a12.86048,12.86048,0,0,0-14.54542,8.40088L210.045,343.78887a74.5454,74.5454,0,0,0-17.65967,6.06982l-11.8872-7.72558a12.85678,12.85678,0,0,0-16.63379,2.335l-18.77588,21.59961a12.85463,12.85463,0,0,0,.00195,16.79736l9.30518,10.69678a74.51289,74.51289,0,0,0-3.55323,18.33252l-12.646,6.4375a12.85474,12.85474,0,0,0-6.29444,15.57275l9.31739,27.06006a12.85826,12.85826,0,0,0,14.54834,8.397l13.92675-2.7124a75.06913,75.06913,0,0,0,14.08887,12.24707l-.74756,14.16895A12.85656,12.85656,0,0,0,193.375,506.30352l28.09326,5.46045a12.66145,12.66145,0,0,0,2.418.23291,12.87069,12.87069,0,0,0,12.12793-8.63379l4.61523-13.41895a74.54456,74.54456,0,0,0,17.65967-6.06982l11.88721,7.72558a12.853,12.853,0,0,0,16.63379-2.335L305.586,467.66533a12.85521,12.85521,0,0,0-.002-16.79736l-9.30517-10.69629a74.559,74.559,0,0,0,3.55322-18.333l12.646-6.4375a12.85473,12.85473,0,0,0,6.29443-15.57275Zm-17.56446,36.28125a12.82008,12.82008,0,0,0-6.96679,10.772,59.54774,59.54774,0,0,1-3.227,16.64844,12.817,12.817,0,0,0,2.42968,12.58643l8.88379,10.21191-16.26513,18.71143-11.34913-7.376a12.81611,12.81611,0,0,0-12.80273-.65381,59.56292,59.56292,0,0,1-16.03516,5.51172,12.81553,12.81553,0,0,0-9.69921,8.3999l-4.40674,12.8125-24.33643-4.73.71387-13.52783a12.81939,12.81939,0,0,0-5.83154-11.41113A60.08778,60.08778,0,0,1,180.188,455.86944a12.82034,12.82034,0,0,0-12.11328-4.18653l-13.29541,2.58936-8.07178-23.44141,12.07471-6.147a12.81839,12.81839,0,0,0,6.96826-10.77344,59.52976,59.52976,0,0,1,3.227-16.64746,12.81507,12.81507,0,0,0-2.43018-12.58643l-8.8833-10.21191,16.26514-18.71143,11.34912,7.376a12.81176,12.81176,0,0,0,12.80273.65381,59.57105,59.57105,0,0,1,16.03711-5.51221,12.81745,12.81745,0,0,0,9.69727-8.39941l4.40674-12.8125,24.33642,4.73047-.71386,13.52734a12.81934,12.81934,0,0,0,5.83154,11.41113,60.29766,60.29766,0,0,1,6.80029,5.11328l.00049.00049a60.157,60.157,0,0,1,6.00928,6.022,12.823,12.823,0,0,0,12.11328,4.18652l13.29541-2.58936,8.07178,23.44141Z" class="color272a33 svgShape" data-darkreader-inline-fill="" style="--darkreader-inline-fill:#5a5c17;"></path></svg></g></svg>